<?xml version="1.0" encoding="utf-8"?>
<!-- Generator: Adobe Illustrator 16.0.0, SVG Export Plug-In . SVG Version: 6.00 Build 0)  -->
<!DOCTYPE svg PUBLIC "-//W3C//DTD SVG 1.1//EN" "http://www.w3.org/Graphics/SVG/1.1/DTD/svg11.dtd">
<svg version="1.1" id="レイヤー_1" xmlns="http://www.w3.org/2000/svg" xmlns:xlink="http://www.w3.org/1999/xlink" x="0px"
	 y="0px" width="197.408px" height="50px" viewBox="0 0 197.408 50" enable-background="new 0 0 197.408 50" xml:space="preserve">
<path fill="#717071" d="M67.261,29.435l-8.416-18.35V25.66c0,1.351,0.148,2.191,0.441,2.526c0.406,0.453,1.045,0.681,1.92,0.681
	h0.788v0.568h-7.732v-0.568h0.79c0.938,0,1.606-0.279,2.001-0.842c0.241-0.347,0.358-1.135,0.358-2.365V11.402
	c0-0.97-0.108-1.671-0.327-2.104c-0.154-0.317-0.432-0.575-0.841-0.785c-0.412-0.211-1.069-0.317-1.981-0.317V7.624h6.327
	l7.843,16.964l7.779-16.964h6.221v0.573h-0.769c-0.95,0-1.627,0.284-2.017,0.842c-0.242,0.346-0.364,1.133-0.364,2.364V25.66
	c0,1.351,0.153,2.191,0.463,2.526c0.402,0.453,1.042,0.681,1.918,0.681h0.769v0.568h-9.389v-0.568h0.788
	c0.95,0,1.618-0.279,2.001-0.842c0.242-0.347,0.359-1.135,0.359-2.365V11.085l-8.414,18.35H67.261z"/>
<path fill="#717071" d="M89.932,8.885v8.529h4.75c1.25,0,2.083-0.184,2.501-0.558c0.561-0.491,0.874-1.352,0.937-2.593h0.574v7.62
	H98.12c-0.151-1.068-0.303-1.751-0.451-2.053c-0.194-0.378-0.511-0.674-0.95-0.891c-0.444-0.216-1.12-0.322-2.037-0.322h-4.75v7.134
	c0,0.958,0.043,1.543,0.129,1.747c0.085,0.208,0.233,0.375,0.451,0.497c0.216,0.123,0.624,0.186,1.224,0.186h3.701
	c1.237,0,2.134-0.087,2.691-0.255c0.558-0.173,1.096-0.506,1.608-1.007c0.667-0.657,1.349-1.648,2.048-2.977h0.683l-1.886,5.493
	H83.692v-0.568h0.778c0.52,0,1.012-0.128,1.477-0.38c0.349-0.174,0.583-0.437,0.706-0.789c0.125-0.35,0.187-1.067,0.187-2.152
	V11.518c0-1.436-0.142-2.318-0.422-2.651c-0.392-0.446-1.038-0.67-1.948-0.67h-0.778V7.623h16.83l0.23,4.811h-0.685
	c-0.225-1.136-0.473-1.917-0.745-2.34c-0.268-0.423-0.67-0.746-1.202-0.973c-0.427-0.157-1.178-0.235-2.251-0.235H89.932z"/>
<path fill="#717071" d="M122.264,7.624l0.229,5.129h-0.611c-0.118-0.903-0.281-1.546-0.482-1.933
	c-0.333-0.625-0.778-1.086-1.329-1.381c-0.552-0.293-1.281-0.442-2.18-0.442h-3.068V25.66c0,1.351,0.146,2.191,0.445,2.526
	c0.416,0.453,1.059,0.681,1.926,0.681h0.775v0.568h-9.391v-0.568h0.787c0.942,0,1.611-0.279,2.004-0.842
	c0.241-0.347,0.362-1.135,0.362-2.365V8.998h-2.63c-1.016,0-1.743,0.077-2.173,0.227c-0.56,0.205-1.039,0.595-1.438,1.178
	c-0.393,0.577-0.631,1.359-0.707,2.351h-0.61l0.229-5.129H122.264z"/>
<path fill="#6B216D" d="M130.151,9.229c1.05-0.268,1.88-0.401,2.494-0.401c1.384,0,2.501,0.429,3.339,1.278
	c0.844,0.857,1.266,1.964,1.266,3.326c0,1.396-0.52,2.548-1.565,3.448c-1.042,0.905-2.592,1.352-4.645,1.352
	c-0.094,0-0.218-0.001-0.367-0.007c-0.149-0.006-0.325-0.009-0.522-0.009V9.229z M145.639,28.866
	c-1.194-0.129-2.162-0.432-2.9-0.909c-0.743-0.479-1.627-1.44-2.655-2.892l-4.53-6.245c1.828-0.405,3.18-1.103,4.05-2.087
	c0.876-0.99,1.312-2.155,1.312-3.494c0-1.252-0.384-2.333-1.151-3.24c-0.764-0.909-1.7-1.527-2.799-1.867
	c-1.094-0.338-2.802-0.509-5.116-0.509h-7.94v0.573h0.82c0.833,0,1.456,0.24,1.878,0.721c0.302,0.341,0.451,1.204,0.451,2.601
	v14.028c0,1.265-0.112,2.067-0.339,2.408c-0.402,0.607-1.062,0.913-1.99,0.913h-0.82v0.568h9.387v-0.568h-0.853
	c-0.818,0-1.432-0.241-1.843-0.719c-0.298-0.339-0.45-1.207-0.45-2.602v-6.301c0.166,0.012,0.33,0.021,0.485,0.028
	c0.155,0.003,0.301,0.007,0.439,0.007c0.333,0,0.764-0.012,1.297-0.035l7.416,10.19h5.851V28.866z"/>
<path fill="#717071" d="M152.485,20.908l3.795-8.823l3.635,8.823H152.485z M161.729,25.299c0.434,1.016,0.646,1.763,0.646,2.232
	c0,0.351-0.155,0.655-0.457,0.9c-0.307,0.245-0.895,0.393-1.765,0.435v0.568h8.67v-0.568c-0.893-0.053-1.588-0.298-2.087-0.736
	c-0.5-0.439-1.057-1.395-1.668-2.861l-7.485-18.105h-0.717l-7.722,17.881c-0.667,1.598-1.272,2.661-1.821,3.181
	c-0.267,0.261-0.855,0.478-1.771,0.64v0.568h6.899v-0.568c-1.051-0.075-1.738-0.241-2.053-0.492
	c-0.319-0.259-0.474-0.553-0.474-0.889c0-0.419,0.181-1.056,0.543-1.912l1.472-3.403h8.498L161.729,25.299z"/>
<path fill="#717071" d="M184.251,7.164v7.506h-0.574c-0.195-1.434-0.545-2.572-1.045-3.422c-0.502-0.844-1.22-1.519-2.147-2.017
	c-0.927-0.5-1.892-0.746-2.882-0.746c-1.123,0-2.053,0.34-2.786,1.013c-0.737,0.678-1.102,1.45-1.102,2.311
	c0,0.662,0.227,1.266,0.695,1.809c0.666,0.798,2.251,1.867,4.76,3.198c2.044,1.089,3.436,1.923,4.183,2.506
	c0.746,0.578,1.323,1.268,1.722,2.057c0.405,0.792,0.603,1.617,0.603,2.48c0,1.645-0.64,3.063-1.929,4.252
	c-1.286,1.189-2.94,1.787-4.964,1.787c-0.634,0-1.231-0.053-1.791-0.151c-0.339-0.053-1.028-0.252-2.073-0.594
	c-1.053-0.342-1.72-0.518-1.995-0.518c-0.27,0-0.486,0.083-0.64,0.249c-0.153,0.162-0.273,0.502-0.345,1.014h-0.571v-7.501h0.571
	c0.279,1.566,0.655,2.742,1.131,3.521c0.474,0.779,1.198,1.43,2.174,1.943c0.976,0.519,2.044,0.774,3.209,0.774
	c1.341,0,2.409-0.351,3.19-1.058c0.78-0.707,1.171-1.543,1.171-2.509c0-0.535-0.147-1.079-0.44-1.623
	c-0.292-0.549-0.749-1.057-1.366-1.529c-0.419-0.32-1.568-0.991-3.445-2.017c-1.886-1.02-3.224-1.844-4.013-2.464
	c-0.793-0.624-1.39-1.311-1.801-2.062c-0.407-0.746-0.611-1.573-0.611-2.47c0-1.564,0.606-2.912,1.812-4.042
	c1.211-1.128,2.747-1.698,4.616-1.698c1.168,0,2.406,0.286,3.712,0.86c0.603,0.27,1.031,0.405,1.278,0.405
	c0.278,0,0.51-0.086,0.692-0.253c0.174-0.168,0.318-0.504,0.427-1.012H184.251z"/>
<path fill="#6B216D" d="M61.543,38.753l0.089,2.083h-0.25c-0.046-0.365-0.111-0.627-0.196-0.787
	c-0.132-0.251-0.31-0.439-0.537-0.554c-0.223-0.12-0.517-0.182-0.878-0.182h-1.244v6.784c0,0.542,0.058,0.881,0.174,1.016
	c0.165,0.184,0.419,0.273,0.761,0.273h0.31v0.242h-3.782v-0.242h0.321c0.382,0,0.649-0.114,0.807-0.338
	c0.099-0.137,0.151-0.458,0.151-0.951v-6.784h-1.067c-0.415,0-0.709,0.033-0.88,0.092c-0.23,0.083-0.419,0.242-0.583,0.479
	c-0.162,0.237-0.255,0.551-0.288,0.953h-0.247l0.085-2.083H61.543z"/>
<path fill="#6B216D" d="M65.86,42.519c0.455,0.608,0.686,1.451,0.686,2.514c0,0.851-0.14,1.452-0.414,1.802
	c-0.272,0.348-0.623,0.522-1.043,0.522c-0.569,0-1.028-0.315-1.374-0.95c-0.345-0.631-0.52-1.387-0.52-2.26
	c0-0.54,0.074-0.982,0.216-1.326c0.146-0.347,0.334-0.587,0.567-0.725c0.232-0.139,0.465-0.207,0.696-0.207
	C65.153,41.89,65.548,42.097,65.86,42.519 M63.464,41.85c-0.447,0.26-0.803,0.66-1.074,1.205c-0.276,0.545-0.41,1.09-0.41,1.639
	c0,0.753,0.224,1.435,0.672,2.042c0.532,0.722,1.252,1.08,2.154,1.08c0.551,0,1.056-0.14,1.507-0.421
	c0.452-0.278,0.807-0.692,1.063-1.24c0.258-0.551,0.387-1.097,0.387-1.628c0-0.766-0.233-1.443-0.699-2.032
	c-0.551-0.689-1.282-1.034-2.186-1.034C64.381,41.461,63.913,41.592,63.464,41.85"/>
<path fill="#6B216D" d="M70.868,39.655v1.978h1.399v0.442l-1.399,0.015v3.893c0,0.388,0.056,0.651,0.165,0.783
	c0.112,0.138,0.257,0.205,0.432,0.205c0.142,0,0.281-0.045,0.418-0.133c0.135-0.089,0.242-0.221,0.314-0.395h0.261
	c-0.154,0.429-0.373,0.747-0.654,0.963c-0.28,0.217-0.57,0.322-0.867,0.322c-0.204,0-0.399-0.053-0.591-0.167
	c-0.191-0.109-0.338-0.269-0.428-0.476c-0.092-0.21-0.141-0.53-0.141-0.963v-4.047h-0.942v-0.21
	c0.239-0.093,0.484-0.255,0.735-0.483c0.25-0.227,0.475-0.497,0.672-0.812c0.104-0.167,0.243-0.467,0.425-0.915H70.868z"/>
<path fill="#6B216D" d="M75.738,46.998c-0.246,0-0.464-0.103-0.657-0.31c-0.189-0.209-0.282-0.472-0.282-0.785
	c0-0.249,0.076-0.481,0.225-0.689c0.148-0.211,0.399-0.412,0.749-0.604c0.195-0.109,0.62-0.296,1.288-0.558v2.292
	C76.515,46.782,76.076,46.998,75.738,46.998 M77.259,47.534c0.122,0.149,0.295,0.222,0.506,0.222c0.449,0,0.913-0.327,1.403-0.988
	v-0.37c-0.265,0.264-0.442,0.428-0.533,0.484c-0.053,0.032-0.116,0.046-0.185,0.046c-0.065,0-0.125-0.02-0.17-0.064
	c-0.055-0.045-0.089-0.131-0.11-0.262c-0.026-0.128-0.037-0.479-0.037-1.047v-2.042c0-0.577-0.038-0.963-0.113-1.151
	c-0.125-0.287-0.318-0.498-0.576-0.632c-0.339-0.182-0.775-0.271-1.31-0.271c-0.695,0-1.232,0.157-1.617,0.472
	c-0.387,0.312-0.577,0.656-0.577,1.028c0,0.197,0.052,0.352,0.155,0.461c0.102,0.115,0.236,0.171,0.401,0.171
	c0.163,0,0.303-0.056,0.406-0.163c0.105-0.108,0.153-0.262,0.153-0.458l-0.011-0.379c0-0.193,0.08-0.359,0.248-0.509
	c0.162-0.148,0.379-0.223,0.655-0.223c0.363,0,0.637,0.11,0.83,0.334c0.188,0.221,0.284,0.629,0.284,1.22v0.234
	c-1.034,0.379-1.772,0.698-2.217,0.959c-0.446,0.264-0.757,0.543-0.936,0.84c-0.131,0.213-0.196,0.47-0.196,0.762
	c0,0.465,0.135,0.84,0.401,1.124c0.271,0.283,0.615,0.423,1.03,0.423c0.265,0,0.517-0.053,0.757-0.16
	c0.157-0.078,0.544-0.351,1.161-0.828C77.064,47.132,77.131,47.383,77.259,47.534"/>
<path fill="#6B216D" d="M82.164,38.324v7.945c0,0.381,0.028,0.63,0.082,0.754c0.056,0.125,0.139,0.218,0.252,0.28
	c0.115,0.063,0.329,0.097,0.638,0.097v0.228h-2.947V47.4c0.277,0,0.462-0.029,0.567-0.083c0.099-0.06,0.178-0.155,0.234-0.29
	c0.058-0.129,0.087-0.383,0.087-0.758V40.83c0-0.676-0.016-1.092-0.049-1.249c-0.03-0.151-0.077-0.257-0.142-0.317
	c-0.07-0.053-0.153-0.084-0.261-0.084c-0.11,0-0.251,0.035-0.426,0.104l-0.111-0.228l1.786-0.732H82.164z"/>
<path fill="#6B216D" d="M100.234,38.753v0.244c-0.231,0-0.419,0.042-0.562,0.128c-0.147,0.079-0.282,0.237-0.416,0.459
	c-0.084,0.157-0.225,0.524-0.41,1.098l-2.465,7.147h-0.265l-2.024-5.668l-1.995,5.668h-0.24l-2.641-7.362
	c-0.195-0.553-0.317-0.877-0.371-0.979c-0.089-0.164-0.208-0.289-0.359-0.367c-0.148-0.085-0.351-0.124-0.611-0.124v-0.244h3.281
	v0.244h-0.157c-0.233,0-0.408,0.053-0.53,0.159c-0.124,0.103-0.185,0.232-0.185,0.381c0,0.156,0.097,0.502,0.287,1.056l1.755,4.983
	l1.479-4.235l-0.273-0.752l-0.208-0.598c-0.09-0.217-0.195-0.411-0.306-0.576c-0.059-0.079-0.129-0.153-0.212-0.206
	c-0.11-0.08-0.218-0.14-0.325-0.174c-0.086-0.026-0.215-0.039-0.394-0.039v-0.244h3.449v0.244H95.3
	c-0.245,0-0.424,0.053-0.535,0.159c-0.117,0.103-0.169,0.247-0.169,0.425c0,0.223,0.095,0.613,0.291,1.166l1.707,4.824l1.685-4.886
	c0.191-0.542,0.287-0.921,0.287-1.131c0-0.1-0.036-0.192-0.096-0.281c-0.063-0.086-0.142-0.147-0.241-0.183
	c-0.16-0.062-0.376-0.093-0.643-0.093v-0.244H100.234z"/>
<path fill="#6B216D" d="M101.355,42.339c0.286-0.279,0.61-0.419,0.974-0.419c0.236,0,0.461,0.066,0.678,0.205
	c0.214,0.141,0.376,0.333,0.489,0.574c0.068,0.157,0.111,0.425,0.136,0.809h-2.778C100.903,43.008,101.069,42.619,101.355,42.339
	 M104.995,43.892c0-0.738-0.218-1.329-0.652-1.771c-0.43-0.439-0.984-0.661-1.653-0.661c-0.794,0-1.453,0.286-1.978,0.857
	c-0.526,0.575-0.788,1.374-0.788,2.398c0,0.946,0.255,1.698,0.766,2.258c0.517,0.561,1.131,0.842,1.852,0.842
	c0.658,0,1.214-0.242,1.651-0.736c0.442-0.49,0.707-1.031,0.802-1.64l-0.204-0.127c-0.196,0.524-0.439,0.896-0.73,1.112
	c-0.287,0.213-0.629,0.316-1.024,0.316c-0.587,0-1.097-0.25-1.534-0.755c-0.437-0.507-0.655-1.201-0.649-2.093H104.995z"/>
<path fill="#6B216D" d="M108.673,38.324v7.945c0,0.381,0.026,0.63,0.081,0.754c0.057,0.125,0.14,0.218,0.252,0.28
	c0.118,0.063,0.328,0.097,0.643,0.097v0.228h-2.954V47.4c0.276,0,0.465-0.029,0.569-0.083c0.1-0.06,0.178-0.155,0.235-0.29
	c0.054-0.129,0.086-0.383,0.086-0.758V40.83c0-0.676-0.017-1.092-0.046-1.249c-0.029-0.151-0.08-0.257-0.146-0.317
	c-0.066-0.053-0.153-0.084-0.259-0.084c-0.114,0-0.252,0.035-0.427,0.104l-0.112-0.228l1.783-0.732H108.673z"/>
<path fill="#6B216D" d="M113.204,38.324v7.945c0,0.381,0.029,0.63,0.086,0.754c0.052,0.125,0.135,0.218,0.256,0.28
	c0.106,0.063,0.321,0.097,0.631,0.097v0.228h-2.945V47.4c0.272,0,0.459-0.029,0.565-0.083c0.095-0.06,0.178-0.155,0.233-0.29
	c0.057-0.129,0.089-0.383,0.089-0.758V40.83c0-0.676-0.018-1.092-0.049-1.249c-0.029-0.151-0.074-0.257-0.14-0.317
	c-0.072-0.053-0.159-0.084-0.262-0.084c-0.109,0-0.256,0.035-0.428,0.104l-0.109-0.228l1.783-0.732H113.204z"/>
<path fill="#6B216D" d="M117.102,42.714c0.695-0.837,1.364-1.253,1.999-1.253c0.33,0,0.608,0.08,0.843,0.244
	c0.236,0.163,0.42,0.433,0.563,0.806c0.097,0.265,0.141,0.663,0.141,1.203v2.556c0,0.384,0.029,0.644,0.092,0.78
	c0.051,0.112,0.126,0.196,0.235,0.26c0.106,0.059,0.301,0.091,0.588,0.091v0.228h-2.977v-0.228h0.127
	c0.281,0,0.473-0.043,0.588-0.13c0.112-0.086,0.19-0.212,0.233-0.38c0.017-0.064,0.028-0.27,0.028-0.621v-2.461
	c0-0.547-0.071-0.943-0.212-1.19c-0.141-0.25-0.379-0.37-0.709-0.37c-0.517,0-1.028,0.282-1.539,0.85v3.171
	c0,0.411,0.021,0.661,0.069,0.757c0.057,0.129,0.144,0.226,0.256,0.283c0.103,0.059,0.318,0.091,0.643,0.091v0.228h-2.974v-0.228
	h0.131c0.308,0,0.512-0.078,0.624-0.236c0.105-0.157,0.16-0.452,0.16-0.895v-2.218c0-0.724-0.014-1.167-0.049-1.325
	c-0.034-0.154-0.08-0.263-0.149-0.317c-0.069-0.064-0.158-0.088-0.273-0.088c-0.117,0-0.264,0.029-0.433,0.102l-0.098-0.232
	l1.809-0.731h0.284V42.714z"/>
<path fill="#6B216D" d="M124.041,42.339c0.284-0.279,0.612-0.419,0.97-0.419c0.239,0,0.463,0.066,0.681,0.205
	c0.215,0.141,0.376,0.333,0.485,0.574c0.069,0.157,0.118,0.425,0.138,0.809h-2.773C123.588,43.008,123.754,42.619,124.041,42.339
	 M127.676,43.892c0-0.738-0.215-1.329-0.646-1.771c-0.431-0.439-0.982-0.661-1.654-0.661c-0.792,0-1.455,0.286-1.978,0.857
	c-0.525,0.575-0.789,1.374-0.789,2.398c0,0.946,0.255,1.698,0.769,2.258c0.511,0.561,1.126,0.842,1.849,0.842
	c0.66,0,1.214-0.242,1.654-0.736c0.436-0.49,0.703-1.031,0.795-1.64l-0.201-0.127c-0.195,0.524-0.44,0.896-0.729,1.112
	c-0.287,0.213-0.629,0.316-1.02,0.316c-0.591,0-1.105-0.25-1.541-0.755c-0.434-0.507-0.649-1.201-0.643-2.093H127.676z"/>
<path fill="#6B216D" d="M132.834,41.46v2.047h-0.215c-0.167-0.644-0.376-1.079-0.635-1.311c-0.261-0.235-0.591-0.352-0.996-0.352
	c-0.299,0-0.549,0.083-0.735,0.244c-0.187,0.159-0.281,0.34-0.281,0.537c0,0.244,0.071,0.452,0.209,0.63
	c0.135,0.177,0.411,0.366,0.824,0.566l0.956,0.464c0.887,0.435,1.332,1.003,1.332,1.708c0,0.547-0.207,0.985-0.62,1.323
	c-0.41,0.332-0.873,0.497-1.383,0.497c-0.368,0-0.787-0.062-1.261-0.18c-0.14-0.043-0.258-0.063-0.353-0.063
	c-0.097,0-0.175,0.054-0.233,0.155h-0.215v-2.131h0.215c0.121,0.607,0.353,1.066,0.698,1.372c0.347,0.304,0.732,0.461,1.16,0.461
	c0.302,0,0.546-0.089,0.735-0.266c0.187-0.18,0.284-0.389,0.284-0.636c0-0.307-0.106-0.557-0.316-0.76
	c-0.209-0.207-0.634-0.466-1.266-0.779c-0.634-0.312-1.05-0.594-1.243-0.846c-0.198-0.252-0.295-0.565-0.295-0.942
	c0-0.497,0.169-0.91,0.508-1.243c0.335-0.329,0.775-0.497,1.309-0.497c0.238,0,0.522,0.049,0.858,0.146
	c0.221,0.066,0.368,0.098,0.445,0.098c0.069,0,0.123-0.014,0.161-0.044c0.04-0.031,0.086-0.098,0.138-0.2H132.834z"/>
<path fill="#6B216D" d="M138.536,41.46v2.047h-0.218c-0.161-0.644-0.374-1.079-0.637-1.311c-0.256-0.235-0.589-0.352-0.988-0.352
	c-0.307,0-0.554,0.083-0.741,0.244c-0.187,0.159-0.278,0.34-0.278,0.537c0,0.244,0.069,0.452,0.209,0.63
	c0.132,0.177,0.408,0.366,0.824,0.566l0.956,0.464c0.887,0.435,1.33,1.003,1.33,1.708c0,0.547-0.207,0.985-0.621,1.323
	c-0.407,0.332-0.873,0.497-1.38,0.497c-0.368,0-0.788-0.062-1.258-0.18c-0.147-0.043-0.264-0.063-0.356-0.063
	c-0.1,0-0.181,0.054-0.236,0.155h-0.215v-2.131h0.215c0.121,0.607,0.356,1.066,0.701,1.372c0.341,0.304,0.729,0.461,1.157,0.461
	c0.299,0,0.542-0.089,0.735-0.266c0.189-0.18,0.281-0.389,0.281-0.636c0-0.307-0.103-0.557-0.313-0.76
	c-0.209-0.207-0.631-0.466-1.266-0.779c-0.634-0.312-1.047-0.594-1.249-0.846c-0.192-0.252-0.29-0.565-0.29-0.942
	c0-0.497,0.17-0.91,0.509-1.243c0.338-0.329,0.775-0.497,1.309-0.497c0.238,0,0.522,0.049,0.855,0.146
	c0.227,0.066,0.376,0.098,0.445,0.098c0.072,0,0.126-0.014,0.166-0.044c0.041-0.031,0.084-0.098,0.136-0.2H138.536z"/>
<path fill="#6B216D" d="M149.692,38.556v3.063h-0.241c-0.08-0.589-0.218-1.056-0.422-1.401c-0.201-0.349-0.494-0.623-0.87-0.827
	c-0.373-0.204-0.76-0.306-1.163-0.306c-0.453,0-0.826,0.137-1.125,0.417c-0.296,0.274-0.442,0.59-0.442,0.94
	c0,0.273,0.095,0.518,0.281,0.739c0.27,0.327,0.913,0.764,1.932,1.308c0.827,0.443,1.396,0.785,1.694,1.022
	c0.304,0.238,0.537,0.517,0.698,0.841c0.163,0.32,0.249,0.659,0.249,1.012c0,0.671-0.263,1.253-0.783,1.74
	c-0.523,0.483-1.195,0.727-2.013,0.727c-0.258,0-0.505-0.022-0.726-0.062c-0.138-0.021-0.416-0.1-0.839-0.242
	c-0.43-0.142-0.697-0.208-0.812-0.208c-0.109,0-0.195,0.031-0.255,0.099c-0.066,0.067-0.109,0.205-0.144,0.413h-0.241v-3.046h0.241
	c0.112,0.634,0.267,1.114,0.462,1.427c0.19,0.317,0.486,0.581,0.879,0.788c0.396,0.211,0.827,0.319,1.301,0.319
	c0.545,0,0.976-0.148,1.291-0.434c0.319-0.288,0.48-0.63,0.48-1.02c0-0.22-0.063-0.441-0.184-0.661
	c-0.118-0.223-0.307-0.426-0.557-0.62c-0.17-0.132-0.637-0.407-1.401-0.831c-0.758-0.424-1.295-0.762-1.616-1.013
	c-0.325-0.255-0.569-0.532-0.732-0.84c-0.167-0.307-0.25-0.639-0.25-1.005c0-0.64,0.241-1.187,0.735-1.649
	c0.488-0.46,1.108-0.688,1.86-0.688c0.477,0,0.973,0.117,1.502,0.352c0.244,0.104,0.413,0.163,0.516,0.163
	c0.115,0,0.207-0.036,0.279-0.103c0.072-0.068,0.132-0.204,0.175-0.412H149.692z"/>
<path fill="#6B216D" d="M155.664,42.519c0.459,0.608,0.688,1.451,0.688,2.514c0,0.851-0.14,1.452-0.413,1.802
	c-0.275,0.348-0.623,0.522-1.045,0.522c-0.571,0-1.025-0.315-1.372-0.95c-0.345-0.631-0.52-1.387-0.52-2.26
	c0-0.54,0.072-0.982,0.215-1.326c0.147-0.347,0.33-0.587,0.569-0.725c0.227-0.139,0.465-0.207,0.692-0.207
	C154.96,41.89,155.356,42.097,155.664,42.519 M153.269,41.85c-0.442,0.26-0.804,0.66-1.077,1.205
	c-0.267,0.545-0.404,1.09-0.404,1.639c0,0.753,0.224,1.435,0.671,2.042c0.535,0.722,1.252,1.08,2.154,1.08
	c0.553,0,1.056-0.14,1.507-0.421c0.451-0.278,0.807-0.692,1.059-1.24c0.261-0.551,0.388-1.097,0.388-1.628
	c0-0.766-0.233-1.443-0.698-2.032c-0.548-0.689-1.28-1.034-2.187-1.034C154.188,41.461,153.717,41.592,153.269,41.85"/>
<path fill="#6B216D" d="M160.676,38.324v7.945c0,0.381,0.029,0.63,0.089,0.754c0.052,0.125,0.135,0.218,0.247,0.28
	c0.121,0.063,0.33,0.097,0.643,0.097v0.228h-2.954V47.4c0.281,0,0.468-0.029,0.571-0.083c0.098-0.06,0.175-0.155,0.233-0.29
	c0.06-0.129,0.089-0.383,0.089-0.758V40.83c0-0.676-0.018-1.092-0.049-1.249c-0.032-0.151-0.08-0.257-0.143-0.317
	c-0.067-0.053-0.153-0.084-0.259-0.084c-0.112,0-0.253,0.035-0.433,0.104l-0.107-0.228l1.783-0.732H160.676z"/>
<path fill="#6B216D" d="M167.919,41.633v3.665c0,0.685,0.015,1.104,0.046,1.258c0.032,0.153,0.086,0.261,0.158,0.321
	c0.069,0.062,0.155,0.091,0.25,0.091c0.135,0,0.284-0.038,0.453-0.11l0.092,0.23l-1.783,0.728h-0.293v-1.255
	c-0.516,0.552-0.906,0.9-1.179,1.045c-0.273,0.138-0.56,0.21-0.862,0.21c-0.339,0-0.628-0.1-0.875-0.292
	c-0.25-0.195-0.42-0.445-0.517-0.752c-0.097-0.305-0.143-0.738-0.143-1.298v-2.681c0-0.287-0.032-0.487-0.093-0.594
	c-0.057-0.111-0.151-0.192-0.272-0.254c-0.121-0.061-0.339-0.088-0.655-0.085v-0.227h2.105v4.028c0,0.56,0.1,0.929,0.295,1.104
	c0.195,0.176,0.428,0.263,0.707,0.263c0.189,0,0.399-0.06,0.64-0.174c0.241-0.121,0.522-0.347,0.849-0.68V42.78
	c0-0.354-0.06-0.593-0.189-0.719c-0.123-0.124-0.385-0.193-0.784-0.201v-0.227H167.919z"/>
<path fill="#6B216D" d="M171.582,39.655v1.978h1.398v0.442l-1.398,0.015v3.893c0,0.388,0.055,0.651,0.167,0.783
	c0.112,0.138,0.252,0.205,0.43,0.205c0.141,0,0.284-0.045,0.42-0.133c0.134-0.089,0.235-0.221,0.315-0.395h0.256
	c-0.155,0.429-0.371,0.747-0.652,0.963c-0.281,0.217-0.571,0.322-0.867,0.322c-0.201,0-0.402-0.053-0.594-0.167
	c-0.192-0.109-0.333-0.269-0.425-0.476c-0.092-0.21-0.141-0.53-0.141-0.963v-4.047h-0.941v-0.21
	c0.238-0.093,0.479-0.255,0.732-0.483c0.252-0.227,0.473-0.497,0.677-0.812c0.098-0.167,0.239-0.467,0.422-0.915H171.582z"/>
<path fill="#6B216D" d="M175.892,38.324c0.187,0,0.344,0.066,0.471,0.195c0.129,0.129,0.195,0.286,0.195,0.469
	c0,0.184-0.066,0.344-0.195,0.472c-0.127,0.13-0.284,0.194-0.471,0.194c-0.178,0-0.336-0.063-0.465-0.194
	c-0.132-0.128-0.198-0.289-0.198-0.472c0-0.183,0.06-0.34,0.192-0.469C175.549,38.391,175.708,38.324,175.892,38.324 M176.442,41.46
	v4.809c0,0.38,0.029,0.63,0.083,0.756c0.055,0.125,0.135,0.22,0.247,0.285c0.104,0.058,0.302,0.09,0.586,0.09v0.229h-2.917V47.4
	c0.29,0,0.485-0.029,0.586-0.083c0.101-0.061,0.184-0.155,0.241-0.29c0.057-0.13,0.086-0.383,0.086-0.758v-2.303
	c0-0.654-0.017-1.078-0.058-1.271c-0.031-0.141-0.08-0.237-0.143-0.29c-0.066-0.059-0.152-0.084-0.267-0.084
	c-0.12,0-0.27,0.029-0.439,0.103l-0.095-0.232l1.803-0.731H176.442z"/>
<path fill="#6B216D" d="M182.013,42.519c0.453,0.608,0.686,1.451,0.686,2.514c0,0.851-0.139,1.452-0.414,1.802
	c-0.272,0.348-0.623,0.522-1.045,0.522c-0.568,0-1.025-0.315-1.372-0.95c-0.348-0.631-0.52-1.387-0.52-2.26
	c0-0.54,0.072-0.982,0.218-1.326c0.144-0.347,0.33-0.587,0.566-0.725c0.233-0.139,0.465-0.207,0.697-0.207
	C181.306,41.89,181.702,42.097,182.013,42.519 M179.618,41.85c-0.448,0.26-0.804,0.66-1.074,1.205
	c-0.272,0.545-0.413,1.09-0.413,1.639c0,0.753,0.227,1.435,0.675,2.042c0.534,0.722,1.249,1.08,2.153,1.08
	c0.554,0,1.056-0.14,1.507-0.421c0.451-0.278,0.807-0.692,1.065-1.24c0.255-0.551,0.385-1.097,0.385-1.628
	c0-0.766-0.236-1.443-0.701-2.032c-0.548-0.689-1.277-1.034-2.187-1.034C180.531,41.461,180.062,41.592,179.618,41.85"/>
<path fill="#6B216D" d="M187.033,42.714c0.703-0.837,1.369-1.253,2.006-1.253c0.328,0,0.606,0.08,0.839,0.244
	c0.241,0.163,0.422,0.433,0.563,0.806c0.094,0.265,0.143,0.663,0.143,1.203v2.556c0,0.384,0.032,0.644,0.092,0.78
	c0.049,0.112,0.126,0.196,0.232,0.26c0.107,0.059,0.302,0.091,0.592,0.091v0.228h-2.977v-0.228h0.126
	c0.281,0,0.477-0.043,0.586-0.13c0.112-0.086,0.192-0.212,0.235-0.38c0.018-0.064,0.026-0.27,0.026-0.621v-2.461
	c0-0.547-0.069-0.943-0.21-1.19c-0.14-0.25-0.376-0.37-0.711-0.37c-0.517,0-1.028,0.282-1.542,0.85v3.171
	c0,0.411,0.026,0.661,0.075,0.757c0.06,0.129,0.143,0.226,0.249,0.283c0.107,0.059,0.325,0.091,0.649,0.091v0.228h-2.974v-0.228
	h0.129c0.31,0,0.514-0.078,0.629-0.236c0.103-0.157,0.155-0.452,0.155-0.895v-2.218c0-0.724-0.017-1.167-0.049-1.325
	c-0.029-0.154-0.08-0.263-0.149-0.317c-0.066-0.064-0.155-0.088-0.267-0.088c-0.124,0-0.267,0.029-0.437,0.102l-0.097-0.232
	l1.808-0.731h0.279V42.714z"/>
<path fill="#6B216D" d="M196.337,41.46v2.047h-0.215c-0.164-0.644-0.376-1.079-0.638-1.311c-0.258-0.235-0.588-0.352-0.987-0.352
	c-0.305,0-0.552,0.083-0.741,0.244c-0.187,0.159-0.281,0.34-0.281,0.537c0,0.244,0.069,0.452,0.212,0.63
	c0.132,0.177,0.411,0.366,0.824,0.566l0.953,0.464c0.89,0.435,1.332,1.003,1.332,1.708c0,0.547-0.207,0.985-0.62,1.323
	c-0.413,0.332-0.873,0.497-1.386,0.497c-0.365,0-0.784-0.062-1.258-0.18c-0.14-0.043-0.261-0.063-0.35-0.063
	c-0.1,0-0.181,0.054-0.236,0.155h-0.217v-2.131h0.217c0.119,0.607,0.354,1.066,0.701,1.372c0.342,0.304,0.726,0.461,1.154,0.461
	c0.302,0,0.546-0.089,0.735-0.266c0.193-0.18,0.287-0.389,0.287-0.636c0-0.307-0.106-0.557-0.316-0.76
	c-0.212-0.207-0.634-0.466-1.266-0.779c-0.634-0.312-1.05-0.594-1.246-0.846c-0.195-0.252-0.292-0.565-0.292-0.942
	c0-0.497,0.169-0.91,0.508-1.243c0.335-0.329,0.772-0.497,1.312-0.497c0.235,0,0.519,0.049,0.853,0.146
	c0.226,0.066,0.373,0.098,0.447,0.098c0.069,0,0.123-0.014,0.164-0.044c0.04-0.031,0.083-0.098,0.135-0.2H196.337z"/>
<rect x="54.26" y="32.667" fill="#717071" width="142.537" height="0.735"/>
<path fill="#717071" d="M0,25.001C0,38.784,11.218,50,25.002,50c13.786,0,25.001-11.216,25.001-24.999
	C50.003,11.215,38.788,0,25.002,0C11.218,0,0,11.215,0,25.001 M0.9,25.001c0-13.288,10.814-24.1,24.102-24.1s24.1,10.812,24.1,24.1
	c0,13.286-10.812,24.099-24.1,24.099S0.9,38.287,0.9,25.001"/>
<rect x="40.823" y="7.623" fill="#717071" width="9.058" height="1.021"/>
<rect x="44.17" y="7.628" transform="matrix(-0.7071 0.7071 -0.7071 -0.7071 86.0288 -19.3609)" fill="#717071" width="5.709" height="1.018"/>
<rect x="46.513" y="5.284" fill="#717071" width="1.022" height="5.707"/>
<rect x="44.169" y="7.628" transform="matrix(0.7071 0.7071 -0.7071 0.7071 19.5243 -30.866)" fill="#717071" width="5.709" height="1.019"/>
<path fill="#6B216D" d="M26.811,17.588c1.785-0.287,3.2-0.426,4.242-0.426c2.361,0,4.253,0.644,5.69,1.932
	c1.431,1.291,2.147,2.96,2.147,5.019c0,2.107-0.888,3.841-2.66,5.201c-1.776,1.36-4.411,2.039-7.901,2.039
	c-0.164,0-0.372-0.004-0.623-0.01c-0.256-0.01-0.553-0.013-0.895-0.013V17.588z M53.207,47.363c-2.029-0.194-3.673-0.65-4.935-1.367
	c-1.262-0.71-2.767-2.16-4.526-4.333l-7.696-9.409c3.122-0.615,5.426-1.673,6.915-3.167c1.489-1.495,2.235-3.257,2.235-5.289
	c0-1.899-0.654-3.533-1.962-4.908c-1.306-1.37-2.9-2.316-4.773-2.825c-1.874-0.514-4.787-0.768-8.736-0.768h-6.541v5.859v20.995
	c0,1.892-0.188,3.083-0.573,3.588c-0.677,0.913-1.803,1.37-3.373,1.37h-1.398v0.584v0.318h1.243h13.071v-0.902h-1.45
	c-1.392,0-2.433-0.36-3.129-1.076c-0.511-0.503-0.768-1.798-0.768-3.882v-9.28c0.287,0.021,0.562,0.032,0.83,0.04
	c0.27,0.009,0.52,0.012,0.751,0.012c0.571,0,1.307-0.018,2.219-0.052L43.246,48.27h9.961V47.363z"/>
<path fill="#717071" d="M23.188,30.741V9.168h-3.559c-1.158,0-1.978,0.088-2.466,0.256c-0.637,0.233-1.178,0.679-1.627,1.339
	c-0.452,0.661-0.721,1.55-0.807,2.673h-0.695l0.228-5.812h28.182l1.257,1.544h-16.89v14.14L23.188,30.741z"/>
<path fill="#717071" d="M23.188,22.054V11.808l-8.795,13.543h-0.458L6.444,11.808v17.541c0,1.668,0.135,2.708,0.394,3.121
	c0.358,0.559,0.929,0.835,1.708,0.835h0.701v0.703h-6.86v-0.703h0.699c0.835,0,1.433-0.343,1.78-1.038
	c0.216-0.428,0.32-1.396,0.32-2.918v-17.07c0-1.197-0.096-2.063-0.29-2.597C4.76,9.296,4.51,8.973,4.144,8.712
	c-0.362-0.259-0.95-0.389-1.757-0.389V7.624h5.594l7.005,11.92l8.242-11.92h5.509v0.699h-0.688c-0.846,0-1.444,0.346-1.794,1.039
	c-0.213,0.426-0.32,1.401-0.32,2.917v9.775H23.188z"/>
<path fill="#717071" d="M191.583,25.631l0.04,1.002h-0.121c-0.02-0.178-0.051-0.302-0.091-0.377
	c-0.063-0.124-0.153-0.208-0.262-0.271c-0.106-0.057-0.247-0.085-0.424-0.085h-0.595v3.271c0,0.257,0.029,0.423,0.086,0.488
	c0.081,0.087,0.207,0.129,0.376,0.129h0.147v0.122h-1.829v-0.122h0.155c0.181,0,0.31-0.052,0.391-0.161
	c0.045-0.066,0.065-0.221,0.065-0.456V25.9h-0.51c-0.201,0-0.342,0.012-0.428,0.041c-0.109,0.042-0.201,0.118-0.279,0.232
	c-0.08,0.113-0.123,0.268-0.14,0.46h-0.121l0.046-1.002H191.583z"/>
<path fill="#717071" d="M194.443,29.91l-1.654-3.602v2.863c0,0.257,0.026,0.424,0.084,0.488c0.08,0.087,0.203,0.129,0.376,0.129
	h0.152v0.122h-1.504v-0.122h0.151c0.184,0,0.313-0.051,0.391-0.161c0.046-0.066,0.072-0.221,0.072-0.456v-2.803
	c0-0.187-0.023-0.32-0.067-0.407c-0.025-0.061-0.083-0.112-0.163-0.152c-0.08-0.042-0.207-0.06-0.384-0.06v-0.118h1.234l1.541,3.332
	l1.525-3.332h1.211v0.118h-0.149c-0.187,0-0.316,0.055-0.39,0.162c-0.049,0.066-0.072,0.22-0.072,0.457v2.803
	c0,0.257,0.029,0.424,0.089,0.488c0.078,0.087,0.204,0.129,0.373,0.129h0.149v0.122h-1.828v-0.122h0.152
	c0.184,0,0.313-0.051,0.387-0.161c0.046-0.066,0.072-0.221,0.072-0.456v-2.863l-1.647,3.602H194.443z"/>
</svg>
